<?xml version="1.0" standalone="no"?>
<!DOCTYPE svg PUBLIC "-//W3C//DTD SVG 1.1//EN" "http://www.w3.org/Graphics/SVG/1.1/DTD/svg11.dtd" >
<svg xmlns="http://www.w3.org/2000/svg" xmlns:xlink="http://www.w3.org/1999/xlink" version="1.1">
<metadata>
Created by FontForge 20161116 at Tue Jun 11 18:50:11 2013
 By Jimmy Warting
Copyright 2013 Adobe Systems Incorporated. All rights reserved.
</metadata>
<defs>
<font id="Woodwarrior-Light" horiz-adv-x="1067" >
  <font-face 
    font-family="Woodwarrior Light"
    font-weight="300"
    font-stretch="normal"
    units-per-em="1000"
    panose-1="0 0 0 0 0 0 0 0 0 0"
    ascent="1000"
    descent="0"
    x-height="1000"
    cap-height="1000"
    bbox="-45 -0.146384 1174 1000"
    underline-thickness="50"
    underline-position="-100"
    stemh="149"
    stemv="149"
    unicode-range="U+0020-007A"
  />
<missing-glyph horiz-adv-x="540" 
d="M412 24v953h-324v-953h324zM438 0h-375v1000h375v-1000z" />
    <glyph glyph-name=".notdef" horiz-adv-x="540" 
d="M412 24v953h-324v-953h324zM438 0h-375v1000h375v-1000z" />
    <glyph glyph-name="space" unicode=" " horiz-adv-x="450" 
 />
    <glyph glyph-name="period" unicode="." horiz-adv-x="275" 
d="M165 0h-149v149h149v-149z" />
    <glyph glyph-name="zero" unicode="0" horiz-adv-x="768" 
d="M554 280v445l-269 -584c43 -20 70 -27 98 -27c95 0 171 75 171 166zM383 886c-95 0 -170 -75 -170 -166v-445l268 583c-41 21 -68 28 -98 28zM383 0c-158 0 -287 126 -287 280v440c0 154 129 280 287 280c159 0 288 -126 288 -280v-440c0 -154 -129 -280 -288 -280z" />
    <glyph glyph-name="one" unicode="1" horiz-adv-x="788" 
d="M552 0h-126v886h-138l125 114h139v-1000z" />
    <glyph glyph-name="two" unicode="2" horiz-adv-x="768" 
d="M384 886c-79 0 -145 -51 -168 -129l166 -231l170 236c-27 77 -92 124 -168 124zM673 0h-578v128l215 299l-215 299c3 151 132 274 289 274c154 0 281 -119 289 -267l-445 -619h445v-114z" />
    <glyph glyph-name="three" unicode="3" horiz-adv-x="718" 
d="M338 0h-202v114h202c96 0 175 72 175 164s-79 166 -175 166h-202v124l332 318h-332v114h495v-126l-331 -316c206 -8 331 -130 331 -280c0 -153 -131 -278 -293 -278z" />
    <glyph glyph-name="four" unicode="4" horiz-adv-x="718" 
d="M466 559v271l-238 -271h238zM589 0h-123v441h-388v127l376 432h135v-1000z" />
    <glyph glyph-name="five" unicode="5" horiz-adv-x="708" 
d="M476 886h-228v-219zM345 0h-216v114h216c96 0 175 72 175 164s-78 166 -175 166h-216v556h509v-126l-330 -316c205 -8 330 -130 330 -280c0 -153 -131 -278 -293 -278z" />
    <glyph glyph-name="six" unicode="6" horiz-adv-x="708" 
d="M323 444c-95 0 -172 -74 -172 -166s77 -165 172 -165s173 73 173 165s-78 166 -173 166zM596 1000l-292 -442c188 -10 309 -132 309 -280c0 -153 -130 -278 -290 -278c-159 0 -289 125 -289 278c0 53 15 102 41 143l383 579h138z" />
    <glyph glyph-name="seven" unicode="7" horiz-adv-x="678" 
d="M483 886h-272l186 -181zM695 1000l-485 -1000h-138l275 594l-287 280v126h635z" />
    <glyph glyph-name="eight" unicode="8" horiz-adv-x="768" 
d="M384 444c-95 0 -172 -74 -172 -166s77 -165 172 -165s173 73 173 165s-78 166 -173 166zM384 888c-95 0 -172 -74 -172 -166s77 -166 172 -166s173 74 173 166s-78 166 -173 166zM384 0c-159 0 -289 125 -289 278c0 81 37 155 114 222c-77 67 -114 141 -114 222
c0 153 130 278 289 278c160 0 289 -125 289 -278c0 -81 -37 -155 -113 -222c76 -67 113 -141 113 -222c0 -153 -129 -278 -289 -278z" />
    <glyph glyph-name="nine" unicode="9" horiz-adv-x="768" 
d="M385 888c-95 0 -172 -74 -172 -166s77 -166 172 -166s173 74 173 166s-78 166 -173 166zM632 578l-381 -578h-139l293 442c-189 10 -309 132 -309 280c0 153 130 278 289 278s289 -125 289 -278c0 0 -1 -53 -42 -144z" />
    <glyph glyph-name="less" unicode="&#x3c;" horiz-adv-x="450" 
 />
    <glyph glyph-name="A" unicode="A" horiz-adv-x="869" 
d="M330 500l-215 315v-630zM813 0h-140l-274 400l-275 -400h-124v1000h124z" />
    <glyph glyph-name="B" unicode="B" horiz-adv-x="733" 
d="M454 408l-303 -294h194c94 0 172 72 172 164c0 44 -19 85 -63 130zM345 886h-229v-330h229c95 0 172 74 172 166c0 91 -78 164 -172 164zM520 500c76 -67 112 -140 112 -222c0 -151 -125 -278 -279 -278h-353v126l326 318h-326v556h345c159 0 288 -125 288 -278
c0 -82 -37 -156 -113 -222z" />
    <glyph glyph-name="C" unicode="C" horiz-adv-x="917" 
d="M666 147l-518 514c-27 -71 -35 -115 -35 -161c0 -214 176 -387 391 -387c46 0 91 7 162 34zM736 57c-53 -31 -148 -57 -232 -57c-278 0 -504 224 -504 500s226 500 504 500c103 0 200 -31 280 -85l-82 -81c-58 34 -126 54 -198 54c-109 0 -207 -45 -292 -131l627 -622
c-57 -53 -103 -78 -103 -78z" />
    <glyph glyph-name="D" unicode="D" horiz-adv-x="890" 
d="M653 676l-568 -562h226c211 0 382 174 382 386c0 52 -11 101 -40 176zM311 885l-196 2v-584l471 466c-84 78 -175 116 -275 116zM311 0h-311v1000l311 -1c274 -1 496 -224 496 -499s-222 -500 -496 -500z" />
    <glyph glyph-name="E" unicode="E" horiz-adv-x="692" 
d="M624 0h-624v124l445 320h-445v556h624v-114h-508v-330h508v-123l-439 -319h439v-114z" />
    <glyph glyph-name="F" unicode="F" horiz-adv-x="552" 
d="M485 446h-366v-446h-119v559h331l-331 315v126h485v-114h-331l331 -314v-126z" />
    <glyph glyph-name="G" unicode="G" 
d="M926 394h-350l259 -259c-56 -53 -102 -78 -102 -78c-53 -31 -148 -57 -231 -57c-277 0 -502 224 -502 500s225 500 502 500c102 0 199 -31 279 -85l-82 -81c-58 34 -125 54 -197 54c-215 0 -389 -174 -389 -388s174 -387 389 -387c46 0 90 7 162 34l-229 228v131h491
v-112z" />
    <glyph glyph-name="H" unicode="H" horiz-adv-x="780" 
d="M584 545v215l-468 -255v-215zM700 0h-116v416l-468 -256v-160h-116v1000h116v-367l468 257v110h116v-1000z" />
    <glyph glyph-name="I" unicode="I" horiz-adv-x="272" 
d="M150 0h-109v1000h109v-1000z" />
    <glyph glyph-name="J" unicode="J" horiz-adv-x="672" 
d="M457 280v274l-334 -323c30 -74 91 -118 164 -118c94 0 170 75 170 167zM287 0c-152 0 -276 114 -287 260l457 441v299h116v-732c0 -149 -132 -268 -286 -268z" />
    <glyph glyph-name="K" unicode="K" horiz-adv-x="899" 
d="M317 349l-152 151l152 151l-203 201v-352v-352zM829 0h-161l-270 269l-271 -269h-127v1000h127l271 -269l270 269h161l-503 -500z" />
    <glyph glyph-name="L" unicode="L" horiz-adv-x="708" 
d="M512 114l-396 387v-387h396zM663 0h-663v1000h116v-339l547 -535v-126z" />
    <glyph glyph-name="M" unicode="M" horiz-adv-x="993" 
d="M366 602l-252 250v-500zM778 352v500l-252 -250zM891 0h-113v192l-332 330l-332 -330v-192h-114v1000h126l320 -318l320 318h125v-1000z" />
    <glyph glyph-name="N" unicode="N" horiz-adv-x="900" 
d="M684 185v630l-216 -315zM399 600l274 400h125v-1000h-125l-558 814v-814h-115v1000h125z" />
    <glyph glyph-name="O" unicode="O" 
d="M798 727l-535 -535c80 -55 152 -78 229 -78c210 0 378 173 378 385c0 76 -21 146 -72 228zM492 886c-209 0 -378 -173 -378 -385c0 -76 21 -146 72 -228l536 535c-81 55 -153 78 -230 78zM492 0c-271 0 -492 225 -492 501c0 275 221 499 492 499s492 -225 492 -501
c0 -275 -221 -499 -492 -499z" />
    <glyph glyph-name="P" unicode="P" horiz-adv-x="801" 
d="M571 774l-421 -416h201c148 0 268 119 268 265c0 46 -12 89 -48 151zM351 245h-236v-245h-115v371l488 480c-61 28 -98 35 -137 35h-351v114h351c212 0 383 -169 383 -377s-171 -378 -383 -378z" />
    <glyph glyph-name="Q" unicode="Q" 
d="M719 192l-534 535c-51 -82 -72 -152 -72 -228c0 -212 169 -385 377 -385c77 0 148 23 229 78zM490 886c-77 0 -148 -23 -229 -78l534 -535c51 82 72 152 72 228c0 212 -168 385 -377 385zM1062 5h-158l-106 107c-96 -74 -198 -112 -308 -112c-270 0 -490 224 -490 499
c0 276 220 501 490 501s490 -224 490 -499c0 -110 -35 -212 -104 -310z" />
    <glyph glyph-name="R" unicode="R" horiz-adv-x="801" 
d="M351 886h-223l327 -507c104 52 164 141 164 244c0 146 -120 263 -268 263zM517 283l183 -283h-136l-159 245h-290v-245h-115v358h333l-333 516v126h351c212 0 383 -169 383 -377c0 -142 -79 -266 -217 -340z" />
    <glyph glyph-name="S" unicode="S" horiz-adv-x="660" 
d="M289 0c-152 0 -277 115 -288 259h117c11 -82 84 -145 171 -145c95 0 172 74 172 176l-461 367v70c0 150 132 273 289 273c152 0 277 -115 288 -259h-117c-11 82 -84 145 -171 145c-95 0 -172 -74 -172 -176l461 -367v-63c0 -154 -130 -280 -289 -280z" />
    <glyph glyph-name="T" unicode="T" horiz-adv-x="720" 
d="M663 874l-289 -280v-594h-116v641l254 245h-512v114h663v-126z" />
    <glyph glyph-name="U" unicode="U" horiz-adv-x="853" 
d="M649 376v476l-531 -523c30 -128 137 -216 263 -216c148 0 268 118 268 263zM381 0c-210 0 -381 169 -381 376v624h114v-515l523 515h126v-624c0 -207 -171 -376 -382 -376z" />
    <glyph glyph-name="V" unicode="V" horiz-adv-x="870" 
d="M768 0h-124l-689 1000h140l558 -815v815h115v-1000z" />
    <glyph glyph-name="W" unicode="W" horiz-adv-x="1276" 
d="M707 710v176h-120zM1174 0h-123l-231 340v-340h-123l-678 1000h138l551 -815l-1 321l-334 494h447v-457l241 -358v815h113v-1000z" />
    <glyph glyph-name="X" unicode="X" horiz-adv-x="842" 
d="M551 114l-167 276l-167 -276h334zM551 886h-334l167 -276zM753 0h-737l302 500l-302 500h737l-302 -500z" />
    <glyph glyph-name="Y" unicode="Y" horiz-adv-x="1003" 
d="M667 886h-414l206 -206zM939 1000l-423 -424v-576h-113v576l-424 424h960z" />
    <glyph glyph-name="Z" unicode="Z" horiz-adv-x="906" 
d="M676 886h-527l281 -277zM817 0h-817v127l354 397l-354 350v126h817v-126l-676 -760h676v-114z" />
    <glyph glyph-name="a" unicode="a" horiz-adv-x="882" 
d="M667 186v628l-217 -314zM780 0h-134c16 -9 -264 400 -264 400l-275 -400h-140l689 1000h124v-1000z" />
    <glyph glyph-name="b" unicode="b" horiz-adv-x="733" 
d="M345 444h-229v-330h229c94 0 172 73 172 164c0 92 -77 166 -172 166zM345 886h-194l303 -294c44 45 63 86 63 130c0 92 -78 164 -172 164zM345 0h-345v556h326l-326 318v126h353c154 0 279 -127 279 -278c0 -82 -36 -155 -112 -222c76 -66 113 -140 113 -222
c0 -153 -129 -278 -288 -278z" />
    <glyph glyph-name="c" unicode="c" horiz-adv-x="917" 
d="M666 147l-518 514c-27 -71 -35 -115 -35 -161c0 -214 176 -387 391 -387c46 0 91 7 162 34zM736 57c-53 -31 -148 -57 -232 -57c-278 0 -504 224 -504 500s226 500 504 500c103 0 200 -31 280 -85l-82 -81c-58 34 -126 54 -198 54c-109 0 -207 -45 -292 -131l627 -622
c-57 -53 -103 -78 -103 -78z" />
    <glyph glyph-name="d" unicode="d" horiz-adv-x="890" 
d="M586 231l-471 466v-584l196 2c100 0 191 38 275 116zM311 886h-226l568 -562c29 75 40 124 40 176c0 212 -171 386 -382 386zM311 1l-311 -1v1000h311c274 0 496 -225 496 -500s-222 -498 -496 -499z" />
    <glyph glyph-name="e" unicode="e" horiz-adv-x="692" 
d="M624 0h-624v556h445l-445 320v124h624v-114h-439l439 -319v-123h-508v-330h508v-114z" />
    <glyph glyph-name="f" unicode="f" horiz-adv-x="552" 
d="M485 446h-366v-446h-119v559h331l-331 315v126h485v-114h-331l331 -314v-126z" />
    <glyph glyph-name="g" unicode="g" 
d="M926 394h-350l259 -259c-56 -53 -102 -78 -102 -78c-53 -31 -148 -57 -231 -57c-277 0 -502 224 -502 500s225 500 502 500c102 0 199 -31 279 -85l-82 -81c-58 34 -125 54 -197 54c-215 0 -389 -174 -389 -388s174 -387 389 -387c46 0 90 7 162 34l-229 228v131h491
v-112z" />
    <glyph glyph-name="h" unicode="h" horiz-adv-x="780" 
d="M584 240v215l-468 255v-215zM700 0h-116v110l-468 257v-367h-116v1000h116v-160l468 -256v416h116v-1000z" />
    <glyph glyph-name="i" unicode="i" horiz-adv-x="272" 
d="M150 0h-109v1000h109v-1000z" />
    <glyph glyph-name="j" unicode="j" horiz-adv-x="672" 
d="M457 280v274l-334 -323c30 -74 91 -118 164 -118c94 0 170 75 170 167zM287 0c-152 0 -276 114 -287 260l457 441v299h116v-732c0 -149 -132 -268 -286 -268z" />
    <glyph glyph-name="k" unicode="k" horiz-adv-x="899" 
d="M114 0h-114v1000h114v-500v-500zM829 0h-161l-503 500l503 500h161l-503 -500z" />
    <glyph glyph-name="l" unicode="l" horiz-adv-x="708" 
d="M512 114l-396 387v-387h396zM663 0h-663v1000h116v-339l547 -535v-126z" />
    <glyph glyph-name="m" unicode="m" horiz-adv-x="993" 
d="M366 602l-252 250v-500zM778 352v500l-252 -250zM891 0h-113v192l-332 330l-332 -330v-192h-114v1000h126l320 -318l320 318h125v-1000z" />
    <glyph glyph-name="n" unicode="n" horiz-adv-x="900" 
d="M331 500l-216 315v-630zM798 0h-124l-274 400l-275 -400h-125v1000h125l559 -813v813h114v-1000z" />
    <glyph glyph-name="o" unicode="o" 
d="M722 192l-536 535c-51 -82 -72 -152 -72 -228c0 -212 169 -385 378 -385c77 0 149 23 230 78zM492 886c-77 0 -149 -23 -229 -78l535 -535c51 82 72 152 72 228c0 212 -168 385 -378 385zM492 0c-271 0 -492 224 -492 499c0 276 221 501 492 501s492 -224 492 -499
c0 -276 -221 -501 -492 -501z" />
    <glyph glyph-name="p" unicode="p" horiz-adv-x="801" 
d="M571 774l-421 -416h201c148 0 268 119 268 265c0 46 -12 89 -48 151zM351 245h-236v-245h-115v371l488 480c-61 28 -98 35 -137 35h-351v114h351c212 0 383 -169 383 -377s-171 -378 -383 -378z" />
    <glyph glyph-name="q" unicode="q" 
d="M719 192l-534 535c-51 -82 -72 -152 -72 -228c0 -212 169 -385 377 -385c77 0 148 23 229 78zM490 886c-77 0 -148 -23 -229 -78l534 -535c51 82 72 152 72 228c0 212 -168 385 -377 385zM1062 5h-158l-106 107c-96 -74 -198 -112 -308 -112c-270 0 -490 224 -490 499
c0 276 220 501 490 501s490 -224 490 -499c0 -110 -35 -212 -104 -310z" />
    <glyph glyph-name="r" unicode="r" horiz-adv-x="801" 
d="M351 886h-223l327 -507c104 52 164 141 164 244c0 146 -120 263 -268 263zM517 283l183 -283h-136l-159 245h-290v-245h-115v358h333l-333 516v126h351c212 0 383 -169 383 -377c0 -142 -79 -266 -217 -340z" />
    <glyph glyph-name="s" unicode="s" horiz-adv-x="660" 
d="M289 0c-152 0 -277 115 -288 259h117c11 -82 84 -145 171 -145c95 0 172 74 172 176l-461 367v70c0 150 132 273 289 273c152 0 277 -115 288 -259h-117c-11 82 -84 145 -171 145c-95 0 -172 -74 -172 -176l461 -367v-63c0 -154 -130 -280 -289 -280z" />
    <glyph glyph-name="t" unicode="t" horiz-adv-x="720" 
d="M663 886h-512l254 -245v-641h-116v594l-289 280v126h663v-114z" />
    <glyph glyph-name="u" unicode="u" horiz-adv-x="853" 
d="M645 329l-531 523v-476c0 -145 120 -263 267 -263c127 0 234 88 264 216zM381 0c-210 0 -381 169 -381 376v624h126l523 -515v515h114v-624c0 -207 -171 -376 -382 -376z" />
    <glyph glyph-name="v" unicode="v" horiz-adv-x="867" 
d="M813 1000l-689 -1000h-124v1000h115v-815l558 815h140z" />
    <glyph glyph-name="w" unicode="w" horiz-adv-x="1209" 
d="M604 886h-120v-176zM1173 1000l-679 -1000h-123v340l-231 -340h-123v1000h113v-815l241 358v457h448l-335 -494l-1 -321l552 815h138z" />
    <glyph glyph-name="x" unicode="x" horiz-adv-x="842" 
d="M551 114l-167 276l-167 -276h334zM551 886h-334l167 -276zM753 0h-737l302 500l-302 500h737l-302 -500z" />
    <glyph glyph-name="y" unicode="y" horiz-adv-x="1003" 
d="M667 886h-414l206 -206zM939 1000l-423 -424v-576h-113v576l-424 424h960z" />
    <glyph glyph-name="z" unicode="z" horiz-adv-x="906" 
d="M668 114l-281 277l-246 -277h527zM817 0h-817v127l676 759h-676v114h817v-126l-354 -398l354 -350v-126z" />
    <glyph glyph-name="_123" horiz-adv-x="450" 
 />
    </font>
</defs>
</svg>
